<svg xmlns:mydata="http://www.w3.org/2000/svg" mydata:contrastcolor="6D2077" mydata:template="InvertedHex1" mydata:presentation="2.5" mydata:layouttype="undefined" mydata:specialfontid="undefined" mydata:id1="133" mydata:id2="133" mydata:companyname="Meu Treino" xmlns="http://www.w3.org/2000/svg" viewBox="0 0 550 470" class="svg-primary-tile"><g data-paper-data="{&quot;isGlobalGroup&quot;:true,&quot;bounds&quot;:{&quot;x&quot;:146,&quot;y&quot;:106,&quot;width&quot;:258,&quot;height&quot;:258}}" fill="#fff" fill-rule="none" stroke-miterlimit="10" font-family="none" font-weight="none" font-size="none" text-anchor="none" style="mix-blend-mode:normal"><g data-paper-data="{&quot;initialText&quot;:&quot;MT&quot;,&quot;fillRule&quot;:&quot;nonzero&quot;,&quot;selectedEffects&quot;:{&quot;container&quot;:&quot;circle_simple_filledplus&quot;,&quot;transformation&quot;:&quot;&quot;,&quot;pattern&quot;:&quot;&quot;},&quot;blockLetter&quot;:&quot;O&quot;,&quot;blockLetterId&quot;:0,&quot;relativeBoundsIconToContainer&quot;:{&quot;top&quot;:0.023214946360362473,&quot;left&quot;:-0.000001055675416599404},&quot;widthRatioIconToContainer&quot;:0.5466406616290383,&quot;heightRatioIconToContainer&quot;:0.7230694401461453,&quot;bounds&quot;:{&quot;x&quot;:196.84470439087488,&quot;y&quot;:156.84470439087488,&quot;width&quot;:156.31113830737502,&quot;height&quot;:156.31117738516537},&quot;isIcon&quot;:&quot;true&quot;,&quot;iconType&quot;:&quot;initial&quot;,&quot;iconStyle&quot;:&quot;standalone&quot;,&quot;rawInitialId&quot;:543,&quot;monogramSpecial&quot;:&quot;melted-letters&quot;,&quot;suitableAsStandaloneIcon&quot;:true}" fill-rule="nonzero"><path d="M205.55331 235.00014c0-38.35441 31.09239-69.44681 69.44681-69.44681 38.35441 0 69.44681 31.09239 69.44681 69.44681 0 38.35441-31.09239 69.44681-69.44681 69.44681-38.35441 0-69.44681-31.09239-69.44681-69.44681zm64.92585 60.14081h9.04191V190.70694h27.01269v-8.58981h-63.06729v8.58981h27.01269zm-1.13024-43.1751-23.96105-55.4947h-13.11076v84.54182h9.494v-71.77013l27.57781 63.18032zm35.26344-55.4947-24.07408 55.4947v20.45731l27.69083-63.18032v71.77013h9.494v-84.54182zm48.52886 40.06881-.01839.78075-.0264.78075-.03347.78028-.04102.77981-.04903.77981-.05658.77934-.06459.77887-.07214.77792-.07968.77745-.08769.77651-.09571.77604-.10325.77462-.11127.77415-.11881.77274-.1273.77133-.13437.76991-.14285.76896-.15039.76755-.15794.76567-.16642.76425-.17397.76236-.18152.76048-.18953.75859-.19708.7567-.20462.75435-.21263.75247-.22017.75057-.22772.74775-.23526.74539-.24281.74303-.24988.74067-.25789.73785-.26496.73549-.27204.73219-.27958.72983-.28618.727-.29372.72371-.3008.72088-.17727.41537-.30975.71286-.31871.71333-.32578.71003-.33286.70673-.33945.7039-.34653.70013-.35408.69683-.36067.69353-.36728.68975-.37482.68599-.38141.68221-.38849.67845-.39509.67467-.40217.67043-.40876.66618-.41583.66242-.42244.65769-.42904.65393-.43564.64921-.44224.64449-.44884.64025-.45544.63554-.46156.63129-.46817.62611-.47429.62139-.48042.61668-.48703.6115-.49268.60678-.49881.60159-.50494.59688-.5106.59122-.51626.5865-.52192.58132-.52804.57613-.53323.57047-.53889.56576-.54407.5601-.54926.55492-.32013.31824-.55492.5436-.56293.54124-.56859.53558-.5733.5304-.57896.52428-.58415.51909-.58886.51343-.59452.5073-.59923.50117-.60442.49551-.60961.48939-.61433.48373-.61904.47712-.62422.47053-.62846.46487-.63365.4578-.63837.45214-.64261.44506-.64685.43847-.65204.43233-.65581.42527-.66052.41866-.6643.41206-.66854.40499-.67279.39839-.67703.39179-.68033.38472-.68457.37765-.68787.37057-.69211.36397-.69541.3569-.69872.34983-.70202.34276-.70578.33569-.70861.32908-.71192.32201-.71475.31447-.71805.30787-.70909.29608-.72371.29372-.72653.28712-.72936.27958-.73266.27251-.73502.26496-.73785.25789-.7402.25082-.74303.24281-.74539.23573-.74775.22772-.75011.22065-.75247.21263-.75435.20509-.7567.19755-.75859.18953-.76048.18199-.76189.17444-.76425.16642-.76567.15841-.76708.15087-.76896.14285-.77038.13484-.77133.1273-.77274.11928-.77368.11174-.77509.10372-.77556.09571-.77698.08817-.77745.08015-.77792.07214-.77887.06506-.77934.05658-.77976.0495-.78014.04149-.78038.03394-.78061.0264-.78075.01886-.78075.01132-.78075.00377-.76821-.00377-.78052-.01084-.78061-.01839-.78056-.0264-.78033-.03347-.78009-.04102-.77962-.04903-.77934-.05658-.77868-.06459-.77816-.07214-.77745-.07968-.77665-.08769-.7758-.09571-.77486-.10325-.77387-.11127-.77269-.11881-.77147-.1273-.77019-.13437-.76882-.14285-.76727-.15039-.76576-.15794-.76411-.16642-.76241-.17397-.76052-.18152-.75864-.18953-.7567-.19708-.75458-.20462-.75242-.21263-.75025-.22017-.74793-.22772-.74549-.23526-.74308-.24281-.74058-.24988-.7379-.25789-.7353-.26496-.73252-.27204-.72974-.27958-.72682-.28618-.72394-.29372-.72097-.3008-.41513-.1768-.71267-.31022-.71319-.31871-.71003-.32578-.70696-.33239-.70362-.33993-.70032-.34653-.69687-.3536-.69334-.36067-.6898-.36775-.68605-.37482-.68229-.38141-.67847-.38849-.67448-.39509-.67047-.40217-.66639-.40876-.66221-.41583-.65795-.42244-.65363-.42904-.64922-.43564-.64475-.44224-.64022-.44884-.63562-.45544-.63093-.46156-.62623-.46817-.62139-.47429-.61654-.48042-.61168-.48703-.60668-.49268-.60169-.49881-.59664-.50494-.5915-.5106-.58641-.51626-.58123-.52192-.57599-.52804-.57076-.53323-.56548-.53889-.5602-.54407-.55483-.54926-.31838-.32013-.54384-.55492-.5411-.56341-.53573-.56812-.53017-.57378-.52465-.57849-.51895-.58415-.51319-.58933-.50735-.59405-.50145-.59923-.49551-.60442-.48943-.60961-.48335-.61433-.47712-.61904-.47086-.62422-.46454-.62894-.45817-.63319-.45176-.63837-.44521-.64261-.4387-.64732-.43205-.65157-.42541-.65581-.41871-.66052-.41197-.6643-.40523-.66901-.39834-.67231-.3915-.67703-.38467-.68033-.37774-.68457-.37076-.68834-.36383-.69165-.35685-.69541-.34988-.69872-.3429-.70202-.33587-.70578-.32885-.70861-.32182-.71192-.31485-.71475-.30782-.71805-.29604-.70909-.29386-.72371-.28684-.72653-.27967-.72936-.27246-.73266-.2652-.73502-.25784-.73785-.25044-.7402-.24304-.74303-.2355-.74539-.228-.74775-.22041-.75011-.21277-.75247-.20513-.75435-.19745-.7567-.18967-.75859-.18199-.76048-.17416-.76189-.16638-.76425-.1586-.76567-.15073-.76755-.1429-.7685-.13503-.77038-.1272-.77133-.11937-.77274-.1115-.77368-.10363-.77509-.09585-.77556-.08803-.77698-.0802-.77745-.07242-.77792-.06468-.77887-.05695-.77934-.04922-.77981-.04159-.78028-.03394-.78028-.02631-.78075-.01881-.78028-.01127-.78122-.00377-.78028.00349-.7685.01099-.78028.01848-.78075.02603-.78075.03366-.78028.04125-.77981.04894-.77981.05662-.77934.06435-.77839.07214-.77839.07987-.77741.08774-.77669.09547-.7758.10335-.77486.11122-.77382.119-.77269.12687-.77147.13475-.77019.14257-.76882.15044-.76732.15823-.76576.1661-.76411.17383-.76236.18166-.76057.18939-.75864.19717-.75666.20481-.75463.21249-.75247.22013-.7502.22768-.74789.23526-.74558.24271-.74303.25021-.74058.25756-.7379.26492-.7353.27218-.73252.27944-.72974.28656-.72686.29372-.72394.3007-.72092.17694-.41537.31018-.71262.31866-.71319.32569-.71007.33267-.70687.3397-.70367.34671-.70032.35369-.69687.36067-.69334.36765-.68975.37458-.68608.38151-.68226.38839-.67845.39528-.67448.40212-.67052.40895-.66637.41565-.66217.42244-.65798.42908-.6536.43569-.64921.44228-.64478.44884-.6402.4553-.63558.46171-.63092.46807-.62621.47434-.62144.48057-.61654.4867-.61164.49283-.60668.49881-.60169.50475-.59664.51065-.59154.5164-.58639.52215-.58122.52776-.576.53328-.57076.53875-.56548.54417-.56017.5494-.55484.31994-.31824.55506-.54382.56302-.54113.56831-.5357.57359-.5302.57882-.52461.58401-.51895.58919-.51319.59429-.50738.59938-.50147.60438-.49551.60942-.48943.61433-.4833.61918-.47712.62403-.4709.62876-.46454.63349-.45817.63812-.45176.6427-.44521.64721-.4387.65165-.43205.65601-.42546.66031-.41871.66452-.41197.66866-.40518.67272-.39839.67669-.3915.68059-.38467.68442-.37774.68813-.37076.69179-.36383.69537-.3569.69881-.34988.70225-.34285.7055-.33587.70871-.32889.71187-.32182.71489-.31485.71786-.30782.70918-.29608.72361-.29386.72667-.28684.72955-.27967.73233-.27246.73512-.26515.73775-.25784.74039-.25049.74294-.24299.74539-.23555.74779-.22796.75006-.22041.75237-.21277.75449-.20513.75656-.19745.75855-.18971.76048-.18194.76231-.17416.76402-.16638.76571-.1586.76727-.15073.76878-.1429.77015-.13503.77147-.1272.77269-.11937.77382-.1115.77486-.10363.77585-.09585.77665-.08803.7775-.0802.77816-.07242.77882-.06468.77934-.05695.77976-.04922.78009-.04159.78042-.03394.78061-.02631.78075-.01881.78075-.01127.78075-.00382.76811.00353.78052.01099.78061.01848.78052.02603.78033.03366.78009.04125.77976.04894.77934.05662.77839.06435.77839.07214.77745.07987.77651.08769.77604.09552.77462.10335.77368.11117.77274.11905.77179.12687.76991.13475.76896.14257.76708.15044.76614.15823.76378.1661.76236.17383.76095.18166.75859.18939.7567.19717.75435.20481.75247.21249.75011.22013.74822.22768.74539.23526.74303.24271.74067.25021.73785.25756.73549.26492.73219.27218.72983.27944.727.28656.72371.29368.72088.30075.41583.17704.71239.31018.71333.31862.71003.32569.70673.33267.7039.3397.70013.34671.69683.35369.69353.36067.68975.36765.68599.37458.68221.38151.67845.38839.67467.39528.67043.40212.66618.4089.66242.41569.65817.42239.65345.42908.64921.43569.64449.44228.64025.44884.63601.4553.63082.46171.62611.46803.62139.47434.61668.48057.6115.48675.60678.49283.60159.4988.59688.50476.59122.51063.5865.51641.58132.52213.57613.52775.57047.53329.56576.53876.5601.54413.55492.54943.31777.31984.54407.55505.54124.56303.53558.56832.52993.57359.52474.57882.51909.58401.51296.58918.5073.59429.50164.59938.49551.60442.48939.60937.48325.61433.47712.61918.471.62403.46439.6288.45827.63347.45167.63813.44553.6427.43847.64723.43233.65161.42527.65605.41866.66029.41206.66453.40499.66864.39839.67274.39179.67669.38424.68061.37812.68443.37057.68815.36397.69179.3569.69537.34983.69881.34276.70225.33569.7055.32908.70876.32154.71187.31494.71489.30787.71786.29608.70918.29372.72356.28712.72672.27958.7295.27251.73238.26496.73507.25789.7378.25082.74034.24281.74294.23573.74539.22772.74775.22065.75011.21263.75237.20509.75449.19755.75651.18953.75859.18199.76048.17444.76231.16642.76402.15841.76571.15087.76727.14285.76878.13484.77015.1273.77147.11928.77269.11174.77382.10372.77486.09571.77585.08817.77665.08015.77769.07214.77792.06506.77887.05658.77934.0495.77981.04149.78028.03394.78028.0264.78075.01886.78028.01132.78122.00377.78028v.01744l-.00377.75105zm-3.65577-2.27672-.01037-.74539-.01791-.74539-.02499-.74492-.03206-.74445-.0396-.74445-.04667-.7435-.05422-.74303-.06176-.74256-.06883-.74162-.0759-.74115-.08392-.73988-.091-.73912-.09854-.73813-.10608-.73705-.11362-.73587-.1207-.73469-.12871-.73337-.13578-.732-.14333-.73059-.15087-.72903-.15794-.72747-.16596-.72582-.17303-.72413-.18057-.72229-.18764-.72045-.19519-.71852-.20226-.71654-.2098-.71446-.21734-.71234-.22395-.71017-.23149-.70791-.23856-.70564-.24564-.70324-.25271-.70079-.2593-.69834-.26685-.69584-.27345-.6932-.28005-.69075-.28241-.67674-.29372-.68509-.30033-.68217-.30646-.6791-.31353-.67594-.32013-.67279-.32673-.66954-.33333-.66618-.33993-.66274-.34653-.6593-.35313-.65572-.35973-.65209-.36633-.64836-.37246-.64464-.37953-.64082-.38566-.63686-.39226-.63294-.39839-.62889-.40499-.62479-.41112-.62064-.41772-.61644-.42385-.61215-.42998-.60786-.43658-.60348-.44224-.599-.44836-.59457-.4545-.59004-.46016-.58542-.46628-.58085-.47194-.57613-.47807-.57147-.48373-.56675-.48939-.56195-.49457-.55718-.50023-.55228-.50589-.54745-.51107-.54256-.51673-.53763-.52428-.53536-.29891-.30031-.52946-.52473-.53465-.51955-.53936-.51429-.54455-.50896-.54926-.50356-.55444-.49809-.55916-.49255-.56341-.48694-.56859-.48127-.5733-.47553-.57802-.46973-.58274-.46388-.58745-.45795-.59169-.45199-.59641-.44596-.60065-.43988-.60536-.43375-.60961-.42753-.61385-.42135-.61809-.41508-.62234-.40876-.62658-.4024-.63036-.39598-.63459-.38962-.63837-.38312-.64261-.37666-.64591-.37015-.65015-.36364-.65345-.35705-.65723-.35049-.66052-.34394-.6643-.33729-.6676-.33068-.6709-.32409-.6742-.31744-.6775-.31084-.68033-.30424-.68693-.29905-.38943-.16619-.68787-.28703-.6907-.28034-.69306-.27345-.69589-.26657-.69824-.25969-.7006-.25266-.70296-.24564-.70578-.23852-.70768-.23144-.71003-.22423-.71239-.21706-.71427-.2098-.71663-.20254-.71852-.19519-.72041-.18788-.72229-.18052-.72417-.17312-.72559-.16572-.72747-.15827-.72936-.15087-.7303-.14342-.73219-.13592-.73313-.12847-.73502-.12102-.73596-.11358-.73691-.10608-.73832-.09863-.73879-.09118-.7402-.08374-.74115-.07633-.74162-.06893-.74256-.06152-.74313-.05422-.74374-.04682-.74421-.03955-.74468-.03225-.74506-.02503-.74539-.01782-.74577-.01065-.73347-.00349-.74567.00344-.74549.01061-.7453.01773-.74496.02499-.74459.0322-.74417.03951-.74365.04677-.74308.05412-.74242.06148-.74171.06883-.74091.07628-.74002.08364-.73916.09114-.73809.09859-.73705.10599-.73587.11348-.73469.12093-.73337.12843-.732.13587-.73059.14333-.72903.15078-.72747.15827-.72582.16563-.72413.17308-.72229.18043-.7205.18783-.71852.19514-.71654.20249-.71446.20975-.71234.21697-.71017.22418-.70791.2314-.70564.23852-.70324.24559-.70084.25261-.69834.25964-.6958.26657-.69325.27345-.6907.28034-.67665.28227-.68509.29363-.68217.30023-.6791.30683-.67599.31348-.67274.32008-.66954.32673-.66618.33333-.66274.33993-.6593.34653-.65572.35313-.65204.35968-.64841.36624-.64463.37274-.64079.37925-.63689.38571-.63292.39217-.62889.39858-.62481.40499-.62065.41131-.61644.41758-.61217.42385-.60784.43007-.60346.4362-.59903.44237-.59455.44841-.59002.45443-.58545.46038-.58085.46628-.57613.47211-.57147.4779-.56675.4836-.56195.48925-.55713.49484-.55233.50036-.54747.5058-.54252.51118-.53766.51649-.53535.52436-.30038.29869-.52474.52967-.51955.53462-.51428.53955-.50895.54446-.50357.54936-.49811.55421-.49254.55902-.48693.56383-.48127.56859-.47552.5733-.46977.57798-.46388.58269-.45794.58721-.452.59183-.44596.59631-.43988.60084-.43375.60517-.42757.60956-.42135.6139-.41503.61814-.40876.62229-.4024.62649-.39603.63054-.38957.6345-.38317.63851-.37666.64238-.37015.64614-.36364.64992-.35705.6536-.35049.65723-.34394.66071-.33729.66421-.33068.6676-.32409.6709-.31748.67415-.31084.67731-.30419.68038-.2991.68693-.1661.38953-.28703.68778-.28034.69051-.27345.69311-.26657.6957-.25969.69829-.25266.7007-.24564.7032-.23852.7055-.23144.70786-.22423.71012-.21706.71229-.2098.71441-.20254.71649-.19519.71847-.18788.72041-.18052.72229-.17312.72408-.16572.72582-.15827.72743-.15087.72907-.14342.73054-.13592.73205-.12847.73337-.12102.73469-.11353.73591-.10613.73709-.09863.73813-.09118.73921-.08374.74006-.07633.74115-.06893.74162-.06152.74256-.05417.74303-.04686.74398-.03955.74398-.03225.74492-.02503.74492-.01782.74539-.01065.74586-.00349.73313.00344.74586.01061.74539.01773.74539.02499.74492.0322.74492.03951.74398.04677.7435.05412.74303.06148.74256.06883.74162.07628.74115.08369.73973.09109.73926.09859.73832.10599.73691.11348.73596.12093.73455.12843.73361.13587.73172.14333.73078.15082.72889.15823.72747.16563.72606.17308.72371.18043.72229.18783.72088.19519.71852.20245.71616.20975.71475.21697.71239.22423.71003.23135.70814.23852.70532.24559.70343.25266.7006.25959.69824.26657.69589.27345.69353.28034.6907.28227.67655.29363.68504.30018.68221.30688.67891.31348.67608.32008.67279.32673.66948.33328.66618.33998.66288.34653.65911.35308.65581.35968.65204.36624.64827.37274.64497.37925.64073.38571.63695.39217.63271.39858.62894.40495.6247.41131.62092.41758.61621.42385.61197.43007.60819.43625.60348.44233.59877.44841.59452.4544.59028.46039.58557.46628.58085.47208.57613.47793.57142.48359.56671.48925.56199.49485.5568.50037.55256.50579.54738.51117.54266.51649.53748.52437.53558.29882.30033.52969.52474.5346.51955.53955.51437.54445.50871.54936.504.55421.49787.55902.49268.56383.48656.56859.48137.5733.47571.57801.46958.58265.46392.58725.4578.59183.45214.59632.44601.60081.43988.60521.43375.60957.42762.61389.42149.61814.41489.62232.40876.62646.40217.63053.39603.63453.3899.6385.38283.64239.3767.64614.37011.64992.36397.65365.3569.65718.3503.66071.34417.66425.3371.66755.3305.67094.32437.67411.3173.67736.3107.68042.30456.68688.29891.38948.16596.68778.28712.69047.28052.69311.27345.69575.26638.69824.25978.7007.25271.7032.24564.7055.23856.70786.23149.71012.22395.71229.21734.71437.2098.71654.20226.71847.19519.72041.18811.72224.18057.72413.17303.72578.16549.72747.15841.72903.15087.73059.14333.732.13626.73337.12824.73469.12116.73596.11362.73705.10608.73813.09854.73916.09147.74011.08345.74101.07638.74171.06883.74256.06176.74308.05422.74379.04667.74421.0396.74473.03206.74501.02546.74539.01744.74572.01084.73361.0033.74567-.0033.74549-.01037.7453-.01791.74492-.02499.74464-.03206.74417-.0396.7436-.04667.74299-.05422.74256-.06176.74162-.06883.74115-.0759.73973-.08392.73926-.091.73832-.09854.73691-.10608.73596-.11362.73455-.1207.73313-.12871.73219-.13578.73078-.14333.72889-.15087.72747-.15794.72559-.16596.72417-.17303.72229-.18057.72041-.18764.71852-.19519.71663-.20226.71475-.2098.71239-.21734.71003-.22395.70768-.23149.70578-.23856.70343-.24564.7006-.25271.69824-.2593.69589-.26685.69353-.27345.69023-.28005.67703-.28241.68504-.29372.68221-.30033.67891-.30646.67608-.31353.67279-.32013.66948-.32673.66618-.33333.66288-.33993.65911-.34653.65581-.35313.65204-.35973.64827-.36633.64497-.37246.64073-.37953.63695-.38566.63271-.39226.62894-.39839.6247-.40499.62092-.41112.61621-.41772.61243-.42385.60772-.42998.60348-.43611.59877-.44271.59499-.44836.58981-.45402.58557-.46063.58085-.46628.57613-.47194.57142-.47807.56671-.48373.56199-.48891.55727-.49505.55209-.50023.54738-.50589.54266-.51107.53748-.51673.53558-.52428.30033-.29891.52474-.52946.51955-.53465.51437-.53936.50871-.54455.504-.54926.49787-.55444.49268-.55916.48656-.56341.48137-.56859.47571-.5733.46958-.57802.46392-.58274.4578-.58745.45214-.59169.44601-.59641.43988-.60065.43375-.60536.42762-.60961.42102-.61385.41537-.61809.40876-.62234.40217-.62658.39603-.63036.3899-.63459.38283-.63837.3767-.64261.37011-.64591.3635-.65015.35737-.65345.3503-.65723.34417-.661.3371-.66383.3305-.6676.32437-.6709.3173-.6742.3107-.6775.30456-.68033.29891-.68693.16596-.38943.28712-.68787.28052-.6907.27345-.69306.26638-.69589.25978-.69824.25271-.7006.24564-.70296.23856-.70578.23149-.70768.22395-.71003.21734-.71239.2098-.71427.20226-.71663.19519-.71852.18811-.72041.18057-.72229.17303-.72417.16596-.72559.15794-.72747.15087-.72936.14333-.7303.13626-.73219.12824-.73313.12116-.73502.11362-.73549.10608-.73737.09854-.73785.09147-.73926.08345-.7402.07638-.74115.06883-.74162.06176-.74256.05422-.74303.04667-.74398.0396-.74398.03206-.74492.02546-.74492.01744-.74539.01084-.74586.0033-.73313v-.01744z" data-paper-data="{&quot;isPathIcon&quot;:true}"/></g><g data-paper-data="{&quot;isPrimaryText&quot;:true}" fill-rule="nonzero"><path d="m162.94612 219.02906 3.91395-13.1648 10.38016-.33118-8.54601-5.8381 3.77475-12.6966 4.51679 1.34286-.49129 1.65249 12.39364 3.68468.49129-1.65249 4.51679 1.34286-3.27527 11.01657-4.51679-1.34286.49129-1.65249-10.87886-3.23433 13.76621 10.05794-.88432 2.97447-17.30127 1.6308 10.93395 3.25071.49129-1.65249 4.51679 1.34286-2.86586 9.6395-4.51679-1.34286.49129-1.65249-12.39364-3.68468-.49129 1.65249z" data-paper-data="{&quot;glyphName&quot;:&quot;M&quot;,&quot;glyphIndex&quot;:0,&quot;firstGlyphOfWord&quot;:true,&quot;word&quot;:1}"/><path d="m190.8444 167.00175-2.09981 2.77093 3.61824 2.7419 1.52713-2.01522 2.61063 1.97833-1.52713 2.01522 4.07625 3.08897 2.09981-2.77093-3.61824-2.7419 3.88725-5.12966 7.37389 5.58792-11.88734 15.68669-3.75565-2.84602 1.04123-1.37402-10.30513-7.8092-1.04123 1.37402-3.75565-2.84602 11.88734-15.68669 6.91589 5.24084-3.88725 5.12966z" data-paper-data="{&quot;glyphName&quot;:&quot;E&quot;,&quot;glyphIndex&quot;:1,&quot;word&quot;:1}"/><path d="M225.60217 149.39558c.89956 1.26419 1.48194 2.45433 1.74714 3.57041.2652 1.11608.2644 2.18047-.00241 3.19316-.26681 1.01269-.77846 1.97039-1.53496 2.87309-.7565.9027-1.70441 1.7594-2.84374 2.57012-1.17055.83292-2.31401 1.46437-3.43039 1.89435-1.11638.42998-2.20057.60784-3.25258.53357-1.05201-.07427-2.06958-.41401-3.05271-1.01923-.98313-.60522-1.92448-1.53993-2.82404-2.80412l-5.58059-7.84266-1.40466.99951-2.73199-3.83939 8.89616-6.33022 2.73199 3.83939-.93644.66634 6.43017 9.03662c.37759.53065.76283.83251 1.15572.90559.39289.07308.81564-.05142 1.26825-.37348.45261-.32206.70878-.68067.7685-1.07581.05972-.39514-.09921-.85804-.47681-1.38868l-6.43017-9.03662-.93644.66634-2.73199-3.83939 8.26406-5.88044 2.73199 3.83939-1.40466.99951z" data-paper-data="{&quot;glyphName&quot;:&quot;U&quot;,&quot;glyphIndex&quot;:2,&quot;lastGlyphOfWord&quot;:true,&quot;word&quot;:1}"/><path d="m248.6662 124.82443 21.39913-2.99067.96242 6.88642-4.89448.68404-.3102-2.21959-1.8212.25453 1.78963 12.80533 1.99194-.27839.65222 4.66683-11.95164 1.67032-.65222-4.66683 1.99194-.27839-1.78963-12.80533-1.8212.25453.3102 2.21959-4.89448.68404z" data-paper-data="{&quot;glyphName&quot;:&quot;T&quot;,&quot;glyphIndex&quot;:3,&quot;firstGlyphOfWord&quot;:true,&quot;word&quot;:2}"/><path d="m289.82517 141.07412 1.86903.32083-.79722 4.64426-11.49737-1.97361.79722-4.64426 1.69912.29167 2.1875-12.74339-1.69912-.29167.79722-4.64426 13.28145 2.27986c1.15163.19769 2.17525.49001 3.07088.87698.89563.38697 1.62145.88569 2.17745 1.49617.55601.61048.93897 1.3516 1.14888 2.22335.20991.87176.2144 1.89288.01348 3.06339-.21389 1.24602-.65038 2.28863-1.30947 3.12783s-1.50246 1.36495-2.53011 1.57725l-.02029.28805c1.76378.5943 2.47878 1.86372 2.14498 3.80827l-.37431 2.18054 1.33098.22847-.79722 4.64426-8.97701-1.54097 1.14236-6.65488c.09722-.56637.11445-1.03472.05169-1.40505-.06276-.37033-.21562-.66866-.45858-.89501-.24296-.22634-.56644-.4082-.97044-.54557-.404-.13737-.89862-.25629-1.48387-.35675zm2.91948-7.83663c.54749.09398.98242.02287 1.30478-.21332.32236-.2362.53863-.67524.64881-1.31713l.175-1.01947c.11019-.64189.05271-1.12792-.17243-1.4581-.22514-.33018-.61145-.54226-1.15894-.63624l-1.52921-.2625-.79722 4.64426z" data-paper-data="{&quot;glyphName&quot;:&quot;R&quot;,&quot;glyphIndex&quot;:4,&quot;word&quot;:2}"/><path d="m327.42731 140.3522-3.09227-1.58907-2.07498 4.03784 2.24892 1.15568-1.49714 2.91338-2.24892-1.15568-2.33763 4.54896 3.09227 1.58907 2.07498-4.03784 5.72453 2.94174-4.22875 8.22902-17.50583-8.99595 2.15378-4.19118 1.53336.78797 5.90975-11.50018-1.53336-.78797 2.15378-4.19118 17.50583 8.99595-3.9661 7.7179-5.72453-2.94174z" data-paper-data="{&quot;glyphName&quot;:&quot;E&quot;,&quot;glyphIndex&quot;:5,&quot;word&quot;:2}"/><path d="m345.98003 146.68577 8.58163 7.64513-3.1345 3.51847-1.28724-1.14677-8.60077 9.65433 1.28724 1.14677-3.1345 3.51847-8.58163-7.64513 3.1345-3.51847 1.28724 1.14677 8.60077-9.65433-1.28724-1.14677z" data-paper-data="{&quot;glyphName&quot;:&quot;I&quot;,&quot;glyphIndex&quot;:6,&quot;word&quot;:2}"/><path d="m372.05162 178.07271 5.33956 8.52187-3.9931 2.50197-.91535-1.46089-14.94979 9.36712-4.28691-6.84184 6.51106-14.01443-6.98793 4.37844.91535 1.46089-3.9931 2.50197-5.33956-8.52187 3.9931-2.50197.91535 1.46089 10.95669-6.86515-.91535-1.46089 3.9931-2.50197 5.65994 9.03318-5.77567 12.53644 5.79487-3.6309-.91535-1.46089z" data-paper-data="{&quot;glyphName&quot;:&quot;N&quot;,&quot;glyphIndex&quot;:7,&quot;word&quot;:2}"/><path d="M367.53288 213.05281c.15015.63373.42585 1.07039.82712 1.30998.40126.23958.96536.27326 1.69229.10103l8.44357-2.00052c.72693-.17223 1.21595-.45542 1.46706-.84957.25111-.39415.30159-.90809.15144-1.54182-.15015-.63373-.42585-1.07039-.82712-1.30998-.40126-.23958-.96536-.27326-1.69229-.10103l-8.44357 2.00052c-.72693.17223-1.21595.45542-1.46706.84957-.25111.39415-.30159.90809-.15144 1.54182zm8.82119 9.18982c-2.05031.48578-3.84804.64595-5.39318.48053s-2.87435-.60347-3.98763-1.31413c-1.11328-.71067-2.03173-1.67911-2.75534-2.90534-.72361-1.22623-1.27752-2.65015-1.66172-4.27176-.38421-1.62161-.52805-3.14269-.43153-4.56323s.48282-2.69812 1.1589-3.83274 1.66746-2.12247 2.97412-2.96357c1.30666-.84109 2.98515-1.50453 5.03547-1.99031 2.03167-.48136 3.82474-.64043 5.3792-.47722 1.55446.16322 2.88833.60016 4.00161 1.31082 1.11328.71067 2.03173 1.67911 2.75534 2.90534.72361 1.22623 1.27752 2.65015 1.66172 4.27176.38421 1.62161.52805 3.14269.43153 4.56323s-.48282 2.69812-1.1589 3.83274-1.67212 2.12358-2.9881 2.96688c-1.31598.8433-2.98981 1.50563-5.02149 1.987z" data-paper-data="{&quot;glyphName&quot;:&quot;O&quot;,&quot;glyphIndex&quot;:8,&quot;lastGlyphOfWord&quot;:true,&quot;word&quot;:2}"/></g><g data-paper-data="{&quot;isMirroredPrimaryText&quot;:true}" fill-rule="nonzero"><path d="m183.98777 244.71541 3.91395 13.1648-8.51326 5.94827 10.34741.22101 3.77475 12.6966-4.51679 1.34286-.49129-1.65249-12.39364 3.68468.49129 1.65249-4.51679 1.34286-3.27527-11.01657 4.51679-1.34286.49129 1.65249 10.87886-3.23433-17.02511-.90355-.88432-2.97447 13.60021-10.81793-10.93395 3.25071.49129 1.65249-4.51679 1.34286-2.86586-9.6395 4.51679-1.34286.49129 1.65249 12.39364-3.68468-.49129-1.65249z" data-paper-data="{&quot;glyphName&quot;:&quot;M&quot;,&quot;glyphIndex&quot;:0,&quot;firstGlyphOfWord&quot;:true,&quot;word&quot;:1}"/><path d="m200.82892 295.43224-2.09981-2.77093-3.61824 2.7419 1.52713 2.01522-2.61063 1.97833-1.52713-2.01522-4.07625 3.08897 2.09981 2.77093 3.61824-2.7419 3.88725 5.12966-7.37389 5.58792-11.88734-15.68669 3.75565-2.84602 1.04123 1.37402 10.30513-7.8092-1.04123-1.37402 3.75565-2.84602 11.88734 15.68669-6.91589 5.24084-3.88725-5.12966z" data-paper-data="{&quot;glyphName&quot;:&quot;E&quot;,&quot;glyphIndex&quot;:1,&quot;word&quot;:1}"/><path d="M221.70408 326.08281c-.89956 1.26419-1.8331 2.20445-2.80063 2.82078s-1.97339.9644-3.0176 1.04422c-1.0442.07982-2.11669-.08971-3.21746-.50858-1.10077-.41887-2.22082-1.03367-3.36016-1.84438-1.17055-.83292-2.14187-1.70629-2.91398-2.62009-.7721-.9138-1.29546-1.87983-1.57007-2.89807-.27461-1.01825-.28712-2.09096-.03753-3.21815.24959-1.12719.82417-2.32288 1.72372-3.58707l5.58059-7.84266-1.40466-.99951 2.73199-3.83939 8.89616 6.33022-2.73199 3.83939-.93644-.66634-6.43017 9.03662c-.37759.53065-.53653.99354-.47681 1.38868.05972.39514.31589.75374.7685 1.07581.45261.32206.87536.44656 1.26825.37348.39289-.07308.77813-.37494 1.15572-.90559l6.43017-9.03662-.93644-.66634 2.73199-3.83939 8.26406 5.88044-2.73199 3.83939-1.40466-.99951z" data-paper-data="{&quot;glyphName&quot;:&quot;U&quot;,&quot;glyphIndex&quot;:2,&quot;lastGlyphOfWord&quot;:true,&quot;word&quot;:1}"/><path d="m251.70459 323.4352 21.39913 2.99067-.96242 6.88642-4.89448-.68404.3102-2.21959-1.8212-.25453-1.78963 12.80533 1.99194.27839-.65222 4.66683-11.95164-1.67032.65222-4.66683 1.99194.27839 1.78963-12.80533-1.8212-.25453-.3102 2.21959-4.89448-.68404z" data-paper-data="{&quot;glyphName&quot;:&quot;T&quot;,&quot;glyphIndex&quot;:3,&quot;firstGlyphOfWord&quot;:true,&quot;word&quot;:2}"/><path d="m292.08072 342.06597 1.86903-.32083.79722 4.64426-11.49737 1.97361-.79722-4.64426 1.69912-.29167-2.1875-12.74339-1.69912.29167-.79722-4.64426 13.28145-2.27986c1.15163-.19769 2.21414-.26346 3.18754-.19733.9734.06613 1.82399.29425 2.55176.68437.72777.39011 1.33596.96109 1.82458 1.71294.48862.75185.83339 1.71302 1.03431 2.88353.21389 1.24602.15008 2.37451-.19142 3.38546-.3415 1.01096-.96126 1.78786-1.85928 2.33072l.07693.27833c1.861-.02792 2.95841.93039 3.2922 2.87493l.37431 2.18054 1.33098-.22847.79722 4.64426-8.97701 1.54097-1.14236-6.65488c-.09722-.56637-.23717-1.01366-.41984-1.34186-.18267-.3282-.42627-.55848-.7308-.69084-.30453-.13236-.67014-.19593-1.09683-.19071-.42668.00522-.93265.05806-1.5179.15852zm.13893-8.36164c.54749-.09398.93381-.30606 1.15894-.63624.22514-.33018.28261-.81621.17243-1.4581l-.175-1.01947c-.11019-.64189-.32646-1.08093-.64881-1.31713-.32236-.2362-.75728-.3073-1.30478-.21332l-1.52921.2625.79722 4.64426z" data-paper-data="{&quot;glyphName&quot;:&quot;R&quot;,&quot;glyphIndex&quot;:4,&quot;word&quot;:2}"/><path d="m321.70142 318.50564-3.09227 1.58907 2.07498 4.03784 2.24892-1.15568 1.49714 2.91338-2.24892 1.15568 2.33763 4.54896 3.09227-1.58907-2.07498-4.03784 5.72453-2.94174 4.22875 8.22902-17.50583 8.99595-2.15378-4.19118 1.53336-.78797-5.90975-11.50018-1.53336.78797-2.15378-4.19118 17.50583-8.99595 3.9661 7.7179-5.72453 2.94174z" data-paper-data="{&quot;glyphName&quot;:&quot;E&quot;,&quot;glyphIndex&quot;:5,&quot;word&quot;:2}"/><path d="m331.37784 306.92357 8.58163-7.64513 3.1345 3.51847-1.28724 1.14677 8.60077 9.65433 1.28724-1.14677 3.1345 3.51847-8.58163 7.64513-3.1345-3.51847 1.28724-1.14677-8.60077-9.65433-1.28724 1.14677z" data-paper-data="{&quot;glyphName&quot;:&quot;I&quot;,&quot;glyphIndex&quot;:6,&quot;word&quot;:2}"/><path d="m353.4496 280.27202 5.33956-8.52187 3.9931 2.50197-.91535 1.46089 14.94979 9.36712-4.28691 6.84184-15.45101.25361 6.98793 4.37844.91535-1.46089 3.9931 2.50197-5.33956 8.52187-3.9931-2.50197.91535-1.46089-10.95669-6.86515-.91535 1.46089-3.9931-2.50197 5.65994-9.03318 13.80027-.27071-5.79487-3.6309-.91535 1.46089z" data-paper-data="{&quot;glyphName&quot;:&quot;N&quot;,&quot;glyphIndex&quot;:7,&quot;word&quot;:2}"/><path d="M380.50577 260.02107c.15015-.63373.09967-1.14767-.15144-1.54182s-.74013-.67734-1.46706-.84957l-8.44357-2.00052c-.72693-.17223-1.29102-.13855-1.69229.10103-.40126.23958-.67697.67624-.82712 1.30998-.15015.63373-.09967 1.14767.15144 1.54182s.74013.67734 1.46706.84957l8.44357 2.00052c.72693.17223 1.29102.13855 1.69229-.10103.40126-.23958.67697-.67624.82712-1.30998zm-3.76028-12.17072c2.05031.48578 3.7288 1.14921 5.03547 1.99031 1.30666.84109 2.29804 1.82895 2.97412 2.96357.67608 1.13462 1.06238 2.4122 1.1589 3.83274.09652 1.42054-.04733 2.94162-.43153 4.56323-.38421 1.62161-.93811 3.04553-1.66172 4.27176-.72361 1.22623-1.64206 2.19468-2.75534 2.90534-1.11328.71067-2.44249 1.14871-3.98763 1.31413-1.54514.16542-3.34286.00525-5.39318-.48053-2.03167-.48136-3.7055-1.14369-5.02149-1.987-1.31598-.8433-2.31202-1.83226-2.9881-2.96688-.67608-1.13462-1.06238-2.4122-1.1589-3.83274-.09652-1.42054.04733-2.94162.43153-4.56323.38421-1.62161.93811-3.04553 1.66172-4.27176.72361-1.22623 1.64206-2.19468 2.75534-2.90534 1.11328-.71067 2.44715-1.14761 4.00161-1.31082 1.55446-.16322 3.34752-.00414 5.3792.47722z" data-paper-data="{&quot;glyphName&quot;:&quot;O&quot;,&quot;glyphIndex&quot;:8,&quot;lastGlyphOfWord&quot;:true,&quot;word&quot;:2}"/></g><g data-paper-data="{&quot;isContainerElementsWrapper&quot;:true}" fill-rule="evenodd"><path d="M183.78324 143.78324c-11.90199 11.90202-21.11689 25.56984-27.64471 41.00345-6.75903 15.98015-10.13854 32.71795-10.13854 50.2134 0 17.49461 3.37951 34.23234 10.13854 50.21321 6.52782 15.43377 15.74272 29.10188 27.64471 41.00433 11.90302 11.90244 25.57087 21.11699 41.00355 27.64363 15.98112 6.75916 32.71889 10.13873 50.2133 10.13873 17.49591 0 34.23365-3.37958 50.21321-10.13873 15.43508-6.52795 29.10319-15.74249 41.00433-27.64363 11.90244-11.90375 21.11699-25.57186 27.64363-41.00433 6.75916-15.98086 10.13873-32.7186 10.13873-50.21321 0-17.49584-3.37958-34.23365-10.13873-50.2134-6.5286-15.43437-15.74314-29.10216-27.64363-41.00335-11.90244-11.90199-25.57055-21.11692-41.00433-27.6448C309.23309 109.37951 292.49535 106 275.00009 106c-17.49545 0-34.23326 3.37951-50.2134 10.13854-15.43351 6.52775-29.10132 15.74265-41.00345 27.64471zm-33.76057 91.21686c0-16.95162 3.27355-33.16708 9.82064-48.64638 6.32409-14.95187 15.25223-28.19387 26.78441-39.726 11.53223-11.53225 24.77423-20.46038 39.726-26.78441 15.4793-6.54709 31.69476-9.82064 48.64638-9.82064 16.95208 0 33.16747 3.27355 48.64619 9.82064 14.95182 6.32402 28.19398 15.25213 39.72649 26.78431 11.53121 11.53159 20.45918 24.77362 26.78392 39.72609 6.54683 15.47917 9.82025 31.69463 9.82025 48.64638 0 16.95143-3.27342 33.16682-9.82025 48.64619-6.32344 14.95051-15.25141 28.19267-26.78392 39.72649-11.53055 11.53121-24.77272 20.45918-39.72649 26.78392-15.47937 6.54683-31.69476 9.82025-48.64619 9.82025-16.95064 0-33.16614-3.27342-48.64648-9.82025-14.95086-6.32344-28.19283-15.25141-39.7259-26.78392-11.53238-11.53251-20.46051-24.77467-26.78441-39.72649-6.54709-15.47937-9.82064-31.69476-9.82064-48.64619z" data-paper-data="{&quot;isBaseLogoContainer&quot;:true}"/></g></g></svg>