<svg class="svg-second-tile" viewBox="196.84470439 156.84470439 156.31113831 156.31117739" preserveAspectRatio="none" style="width:auto;height:40%"><g data-paper-data="{&quot;initialText&quot;:&quot;MT&quot;,&quot;fillRule&quot;:&quot;nonzero&quot;,&quot;selectedEffects&quot;:{&quot;container&quot;:&quot;circle_simple_filledplus&quot;,&quot;transformation&quot;:&quot;&quot;,&quot;pattern&quot;:&quot;&quot;},&quot;blockLetter&quot;:&quot;O&quot;,&quot;blockLetterId&quot;:0,&quot;relativeBoundsIconToContainer&quot;:{&quot;top&quot;:0.023214946360362473,&quot;left&quot;:-0.000001055675416599404},&quot;widthRatioIconToContainer&quot;:0.5466406616290383,&quot;heightRatioIconToContainer&quot;:0.7230694401461453,&quot;bounds&quot;:{&quot;x&quot;:196.84470439087488,&quot;y&quot;:156.84470439087488,&quot;width&quot;:156.31113830737502,&quot;height&quot;:156.31117738516537},&quot;isIcon&quot;:&quot;true&quot;,&quot;iconType&quot;:&quot;initial&quot;,&quot;iconStyle&quot;:&quot;standalone&quot;,&quot;rawInitialId&quot;:543,&quot;monogramSpecial&quot;:&quot;melted-letters&quot;,&quot;suitableAsStandaloneIcon&quot;:true}" style="fill:#ffb500"><path d="M205.55331 235.00014c0-38.35441 31.09239-69.44681 69.44681-69.44681 38.35441 0 69.44681 31.09239 69.44681 69.44681 0 38.35441-31.09239 69.44681-69.44681 69.44681-38.35441 0-69.44681-31.09239-69.44681-69.44681zm64.92585 60.14081h9.04191V190.70694h27.01269v-8.58981h-63.06729v8.58981h27.01269zm-1.13024-43.1751-23.96105-55.4947h-13.11076v84.54182h9.494v-71.77013l27.57781 63.18032zm35.26344-55.4947-24.07408 55.4947v20.45731l27.69083-63.18032v71.77013h9.494v-84.54182zm48.52886 40.06881-.01839.78075-.0264.78075-.03347.78028-.04102.77981-.04903.77981-.05658.77934-.06459.77887-.07214.77792-.07968.77745-.08769.77651-.09571.77604-.10325.77462-.11127.77415-.11881.77274-.1273.77133-.13437.76991-.14285.76896-.15039.76755-.15794.76567-.16642.76425-.17397.76236-.18152.76048-.18953.75859-.19708.7567-.20462.75435-.21263.75247-.22017.75057-.22772.74775-.23526.74539-.24281.74303-.24988.74067-.25789.73785-.26496.73549-.27204.73219-.27958.72983-.28618.727-.29372.72371-.3008.72088-.17727.41537-.30975.71286-.31871.71333-.32578.71003-.33286.70673-.33945.7039-.34653.70013-.35408.69683-.36067.69353-.36728.68975-.37482.68599-.38141.68221-.38849.67845-.39509.67467-.40217.67043-.40876.66618-.41583.66242-.42244.65769-.42904.65393-.43564.64921-.44224.64449-.44884.64025-.45544.63554-.46156.63129-.46817.62611-.47429.62139-.48042.61668-.48703.6115-.49268.60678-.49881.60159-.50494.59688-.5106.59122-.51626.5865-.52192.58132-.52804.57613-.53323.57047-.53889.56576-.54407.5601-.54926.55492-.32013.31824-.55492.5436-.56293.54124-.56859.53558-.5733.5304-.57896.52428-.58415.51909-.58886.51343-.59452.5073-.59923.50117-.60442.49551-.60961.48939-.61433.48373-.61904.47712-.62422.47053-.62846.46487-.63365.4578-.63837.45214-.64261.44506-.64685.43847-.65204.43233-.65581.42527-.66052.41866-.6643.41206-.66854.40499-.67279.39839-.67703.39179-.68033.38472-.68457.37765-.68787.37057-.69211.36397-.69541.3569-.69872.34983-.70202.34276-.70578.33569-.70861.32908-.71192.32201-.71475.31447-.71805.30787-.70909.29608-.72371.29372-.72653.28712-.72936.27958-.73266.27251-.73502.26496-.73785.25789-.7402.25082-.74303.24281-.74539.23573-.74775.22772-.75011.22065-.75247.21263-.75435.20509-.7567.19755-.75859.18953-.76048.18199-.76189.17444-.76425.16642-.76567.15841-.76708.15087-.76896.14285-.77038.13484-.77133.1273-.77274.11928-.77368.11174-.77509.10372-.77556.09571-.77698.08817-.77745.08015-.77792.07214-.77887.06506-.77934.05658-.77976.0495-.78014.04149-.78038.03394-.78061.0264-.78075.01886-.78075.01132-.78075.00377-.76821-.00377-.78052-.01084-.78061-.01839-.78056-.0264-.78033-.03347-.78009-.04102-.77962-.04903-.77934-.05658-.77868-.06459-.77816-.07214-.77745-.07968-.77665-.08769-.7758-.09571-.77486-.10325-.77387-.11127-.77269-.11881-.77147-.1273-.77019-.13437-.76882-.14285-.76727-.15039-.76576-.15794-.76411-.16642-.76241-.17397-.76052-.18152-.75864-.18953-.7567-.19708-.75458-.20462-.75242-.21263-.75025-.22017-.74793-.22772-.74549-.23526-.74308-.24281-.74058-.24988-.7379-.25789-.7353-.26496-.73252-.27204-.72974-.27958-.72682-.28618-.72394-.29372-.72097-.3008-.41513-.1768-.71267-.31022-.71319-.31871-.71003-.32578-.70696-.33239-.70362-.33993-.70032-.34653-.69687-.3536-.69334-.36067-.6898-.36775-.68605-.37482-.68229-.38141-.67847-.38849-.67448-.39509-.67047-.40217-.66639-.40876-.66221-.41583-.65795-.42244-.65363-.42904-.64922-.43564-.64475-.44224-.64022-.44884-.63562-.45544-.63093-.46156-.62623-.46817-.62139-.47429-.61654-.48042-.61168-.48703-.60668-.49268-.60169-.49881-.59664-.50494-.5915-.5106-.58641-.51626-.58123-.52192-.57599-.52804-.57076-.53323-.56548-.53889-.5602-.54407-.55483-.54926-.31838-.32013-.54384-.55492-.5411-.56341-.53573-.56812-.53017-.57378-.52465-.57849-.51895-.58415-.51319-.58933-.50735-.59405-.50145-.59923-.49551-.60442-.48943-.60961-.48335-.61433-.47712-.61904-.47086-.62422-.46454-.62894-.45817-.63319-.45176-.63837-.44521-.64261-.4387-.64732-.43205-.65157-.42541-.65581-.41871-.66052-.41197-.6643-.40523-.66901-.39834-.67231-.3915-.67703-.38467-.68033-.37774-.68457-.37076-.68834-.36383-.69165-.35685-.69541-.34988-.69872-.3429-.70202-.33587-.70578-.32885-.70861-.32182-.71192-.31485-.71475-.30782-.71805-.29604-.70909-.29386-.72371-.28684-.72653-.27967-.72936-.27246-.73266-.2652-.73502-.25784-.73785-.25044-.7402-.24304-.74303-.2355-.74539-.228-.74775-.22041-.75011-.21277-.75247-.20513-.75435-.19745-.7567-.18967-.75859-.18199-.76048-.17416-.76189-.16638-.76425-.1586-.76567-.15073-.76755-.1429-.7685-.13503-.77038-.1272-.77133-.11937-.77274-.1115-.77368-.10363-.77509-.09585-.77556-.08803-.77698-.0802-.77745-.07242-.77792-.06468-.77887-.05695-.77934-.04922-.77981-.04159-.78028-.03394-.78028-.02631-.78075-.01881-.78028-.01127-.78122-.00377-.78028.00349-.7685.01099-.78028.01848-.78075.02603-.78075.03366-.78028.04125-.77981.04894-.77981.05662-.77934.06435-.77839.07214-.77839.07987-.77741.08774-.77669.09547-.7758.10335-.77486.11122-.77382.119-.77269.12687-.77147.13475-.77019.14257-.76882.15044-.76732.15823-.76576.1661-.76411.17383-.76236.18166-.76057.18939-.75864.19717-.75666.20481-.75463.21249-.75247.22013-.7502.22768-.74789.23526-.74558.24271-.74303.25021-.74058.25756-.7379.26492-.7353.27218-.73252.27944-.72974.28656-.72686.29372-.72394.3007-.72092.17694-.41537.31018-.71262.31866-.71319.32569-.71007.33267-.70687.3397-.70367.34671-.70032.35369-.69687.36067-.69334.36765-.68975.37458-.68608.38151-.68226.38839-.67845.39528-.67448.40212-.67052.40895-.66637.41565-.66217.42244-.65798.42908-.6536.43569-.64921.44228-.64478.44884-.6402.4553-.63558.46171-.63092.46807-.62621.47434-.62144.48057-.61654.4867-.61164.49283-.60668.49881-.60169.50475-.59664.51065-.59154.5164-.58639.52215-.58122.52776-.576.53328-.57076.53875-.56548.54417-.56017.5494-.55484.31994-.31824.55506-.54382.56302-.54113.56831-.5357.57359-.5302.57882-.52461.58401-.51895.58919-.51319.59429-.50738.59938-.50147.60438-.49551.60942-.48943.61433-.4833.61918-.47712.62403-.4709.62876-.46454.63349-.45817.63812-.45176.6427-.44521.64721-.4387.65165-.43205.65601-.42546.66031-.41871.66452-.41197.66866-.40518.67272-.39839.67669-.3915.68059-.38467.68442-.37774.68813-.37076.69179-.36383.69537-.3569.69881-.34988.70225-.34285.7055-.33587.70871-.32889.71187-.32182.71489-.31485.71786-.30782.70918-.29608.72361-.29386.72667-.28684.72955-.27967.73233-.27246.73512-.26515.73775-.25784.74039-.25049.74294-.24299.74539-.23555.74779-.22796.75006-.22041.75237-.21277.75449-.20513.75656-.19745.75855-.18971.76048-.18194.76231-.17416.76402-.16638.76571-.1586.76727-.15073.76878-.1429.77015-.13503.77147-.1272.77269-.11937.77382-.1115.77486-.10363.77585-.09585.77665-.08803.7775-.0802.77816-.07242.77882-.06468.77934-.05695.77976-.04922.78009-.04159.78042-.03394.78061-.02631.78075-.01881.78075-.01127.78075-.00382.76811.00353.78052.01099.78061.01848.78052.02603.78033.03366.78009.04125.77976.04894.77934.05662.77839.06435.77839.07214.77745.07987.77651.08769.77604.09552.77462.10335.77368.11117.77274.11905.77179.12687.76991.13475.76896.14257.76708.15044.76614.15823.76378.1661.76236.17383.76095.18166.75859.18939.7567.19717.75435.20481.75247.21249.75011.22013.74822.22768.74539.23526.74303.24271.74067.25021.73785.25756.73549.26492.73219.27218.72983.27944.727.28656.72371.29368.72088.30075.41583.17704.71239.31018.71333.31862.71003.32569.70673.33267.7039.3397.70013.34671.69683.35369.69353.36067.68975.36765.68599.37458.68221.38151.67845.38839.67467.39528.67043.40212.66618.4089.66242.41569.65817.42239.65345.42908.64921.43569.64449.44228.64025.44884.63601.4553.63082.46171.62611.46803.62139.47434.61668.48057.6115.48675.60678.49283.60159.4988.59688.50476.59122.51063.5865.51641.58132.52213.57613.52775.57047.53329.56576.53876.5601.54413.55492.54943.31777.31984.54407.55505.54124.56303.53558.56832.52993.57359.52474.57882.51909.58401.51296.58918.5073.59429.50164.59938.49551.60442.48939.60937.48325.61433.47712.61918.471.62403.46439.6288.45827.63347.45167.63813.44553.6427.43847.64723.43233.65161.42527.65605.41866.66029.41206.66453.40499.66864.39839.67274.39179.67669.38424.68061.37812.68443.37057.68815.36397.69179.3569.69537.34983.69881.34276.70225.33569.7055.32908.70876.32154.71187.31494.71489.30787.71786.29608.70918.29372.72356.28712.72672.27958.7295.27251.73238.26496.73507.25789.7378.25082.74034.24281.74294.23573.74539.22772.74775.22065.75011.21263.75237.20509.75449.19755.75651.18953.75859.18199.76048.17444.76231.16642.76402.15841.76571.15087.76727.14285.76878.13484.77015.1273.77147.11928.77269.11174.77382.10372.77486.09571.77585.08817.77665.08015.77769.07214.77792.06506.77887.05658.77934.0495.77981.04149.78028.03394.78028.0264.78075.01886.78028.01132.78122.00377.78028v.01744l-.00377.75105zm-3.65577-2.27672-.01037-.74539-.01791-.74539-.02499-.74492-.03206-.74445-.0396-.74445-.04667-.7435-.05422-.74303-.06176-.74256-.06883-.74162-.0759-.74115-.08392-.73988-.091-.73912-.09854-.73813-.10608-.73705-.11362-.73587-.1207-.73469-.12871-.73337-.13578-.732-.14333-.73059-.15087-.72903-.15794-.72747-.16596-.72582-.17303-.72413-.18057-.72229-.18764-.72045-.19519-.71852-.20226-.71654-.2098-.71446-.21734-.71234-.22395-.71017-.23149-.70791-.23856-.70564-.24564-.70324-.25271-.70079-.2593-.69834-.26685-.69584-.27345-.6932-.28005-.69075-.28241-.67674-.29372-.68509-.30033-.68217-.30646-.6791-.31353-.67594-.32013-.67279-.32673-.66954-.33333-.66618-.33993-.66274-.34653-.6593-.35313-.65572-.35973-.65209-.36633-.64836-.37246-.64464-.37953-.64082-.38566-.63686-.39226-.63294-.39839-.62889-.40499-.62479-.41112-.62064-.41772-.61644-.42385-.61215-.42998-.60786-.43658-.60348-.44224-.599-.44836-.59457-.4545-.59004-.46016-.58542-.46628-.58085-.47194-.57613-.47807-.57147-.48373-.56675-.48939-.56195-.49457-.55718-.50023-.55228-.50589-.54745-.51107-.54256-.51673-.53763-.52428-.53536-.29891-.30031-.52946-.52473-.53465-.51955-.53936-.51429-.54455-.50896-.54926-.50356-.55444-.49809-.55916-.49255-.56341-.48694-.56859-.48127-.5733-.47553-.57802-.46973-.58274-.46388-.58745-.45795-.59169-.45199-.59641-.44596-.60065-.43988-.60536-.43375-.60961-.42753-.61385-.42135-.61809-.41508-.62234-.40876-.62658-.4024-.63036-.39598-.63459-.38962-.63837-.38312-.64261-.37666-.64591-.37015-.65015-.36364-.65345-.35705-.65723-.35049-.66052-.34394-.6643-.33729-.6676-.33068-.6709-.32409-.6742-.31744-.6775-.31084-.68033-.30424-.68693-.29905-.38943-.16619-.68787-.28703-.6907-.28034-.69306-.27345-.69589-.26657-.69824-.25969-.7006-.25266-.70296-.24564-.70578-.23852-.70768-.23144-.71003-.22423-.71239-.21706-.71427-.2098-.71663-.20254-.71852-.19519-.72041-.18788-.72229-.18052-.72417-.17312-.72559-.16572-.72747-.15827-.72936-.15087-.7303-.14342-.73219-.13592-.73313-.12847-.73502-.12102-.73596-.11358-.73691-.10608-.73832-.09863-.73879-.09118-.7402-.08374-.74115-.07633-.74162-.06893-.74256-.06152-.74313-.05422-.74374-.04682-.74421-.03955-.74468-.03225-.74506-.02503-.74539-.01782-.74577-.01065-.73347-.00349-.74567.00344-.74549.01061-.7453.01773-.74496.02499-.74459.0322-.74417.03951-.74365.04677-.74308.05412-.74242.06148-.74171.06883-.74091.07628-.74002.08364-.73916.09114-.73809.09859-.73705.10599-.73587.11348-.73469.12093-.73337.12843-.732.13587-.73059.14333-.72903.15078-.72747.15827-.72582.16563-.72413.17308-.72229.18043-.7205.18783-.71852.19514-.71654.20249-.71446.20975-.71234.21697-.71017.22418-.70791.2314-.70564.23852-.70324.24559-.70084.25261-.69834.25964-.6958.26657-.69325.27345-.6907.28034-.67665.28227-.68509.29363-.68217.30023-.6791.30683-.67599.31348-.67274.32008-.66954.32673-.66618.33333-.66274.33993-.6593.34653-.65572.35313-.65204.35968-.64841.36624-.64463.37274-.64079.37925-.63689.38571-.63292.39217-.62889.39858-.62481.40499-.62065.41131-.61644.41758-.61217.42385-.60784.43007-.60346.4362-.59903.44237-.59455.44841-.59002.45443-.58545.46038-.58085.46628-.57613.47211-.57147.4779-.56675.4836-.56195.48925-.55713.49484-.55233.50036-.54747.5058-.54252.51118-.53766.51649-.53535.52436-.30038.29869-.52474.52967-.51955.53462-.51428.53955-.50895.54446-.50357.54936-.49811.55421-.49254.55902-.48693.56383-.48127.56859-.47552.5733-.46977.57798-.46388.58269-.45794.58721-.452.59183-.44596.59631-.43988.60084-.43375.60517-.42757.60956-.42135.6139-.41503.61814-.40876.62229-.4024.62649-.39603.63054-.38957.6345-.38317.63851-.37666.64238-.37015.64614-.36364.64992-.35705.6536-.35049.65723-.34394.66071-.33729.66421-.33068.6676-.32409.6709-.31748.67415-.31084.67731-.30419.68038-.2991.68693-.1661.38953-.28703.68778-.28034.69051-.27345.69311-.26657.6957-.25969.69829-.25266.7007-.24564.7032-.23852.7055-.23144.70786-.22423.71012-.21706.71229-.2098.71441-.20254.71649-.19519.71847-.18788.72041-.18052.72229-.17312.72408-.16572.72582-.15827.72743-.15087.72907-.14342.73054-.13592.73205-.12847.73337-.12102.73469-.11353.73591-.10613.73709-.09863.73813-.09118.73921-.08374.74006-.07633.74115-.06893.74162-.06152.74256-.05417.74303-.04686.74398-.03955.74398-.03225.74492-.02503.74492-.01782.74539-.01065.74586-.00349.73313.00344.74586.01061.74539.01773.74539.02499.74492.0322.74492.03951.74398.04677.7435.05412.74303.06148.74256.06883.74162.07628.74115.08369.73973.09109.73926.09859.73832.10599.73691.11348.73596.12093.73455.12843.73361.13587.73172.14333.73078.15082.72889.15823.72747.16563.72606.17308.72371.18043.72229.18783.72088.19519.71852.20245.71616.20975.71475.21697.71239.22423.71003.23135.70814.23852.70532.24559.70343.25266.7006.25959.69824.26657.69589.27345.69353.28034.6907.28227.67655.29363.68504.30018.68221.30688.67891.31348.67608.32008.67279.32673.66948.33328.66618.33998.66288.34653.65911.35308.65581.35968.65204.36624.64827.37274.64497.37925.64073.38571.63695.39217.63271.39858.62894.40495.6247.41131.62092.41758.61621.42385.61197.43007.60819.43625.60348.44233.59877.44841.59452.4544.59028.46039.58557.46628.58085.47208.57613.47793.57142.48359.56671.48925.56199.49485.5568.50037.55256.50579.54738.51117.54266.51649.53748.52437.53558.29882.30033.52969.52474.5346.51955.53955.51437.54445.50871.54936.504.55421.49787.55902.49268.56383.48656.56859.48137.5733.47571.57801.46958.58265.46392.58725.4578.59183.45214.59632.44601.60081.43988.60521.43375.60957.42762.61389.42149.61814.41489.62232.40876.62646.40217.63053.39603.63453.3899.6385.38283.64239.3767.64614.37011.64992.36397.65365.3569.65718.3503.66071.34417.66425.3371.66755.3305.67094.32437.67411.3173.67736.3107.68042.30456.68688.29891.38948.16596.68778.28712.69047.28052.69311.27345.69575.26638.69824.25978.7007.25271.7032.24564.7055.23856.70786.23149.71012.22395.71229.21734.71437.2098.71654.20226.71847.19519.72041.18811.72224.18057.72413.17303.72578.16549.72747.15841.72903.15087.73059.14333.732.13626.73337.12824.73469.12116.73596.11362.73705.10608.73813.09854.73916.09147.74011.08345.74101.07638.74171.06883.74256.06176.74308.05422.74379.04667.74421.0396.74473.03206.74501.02546.74539.01744.74572.01084.73361.0033.74567-.0033.74549-.01037.7453-.01791.74492-.02499.74464-.03206.74417-.0396.7436-.04667.74299-.05422.74256-.06176.74162-.06883.74115-.0759.73973-.08392.73926-.091.73832-.09854.73691-.10608.73596-.11362.73455-.1207.73313-.12871.73219-.13578.73078-.14333.72889-.15087.72747-.15794.72559-.16596.72417-.17303.72229-.18057.72041-.18764.71852-.19519.71663-.20226.71475-.2098.71239-.21734.71003-.22395.70768-.23149.70578-.23856.70343-.24564.7006-.25271.69824-.2593.69589-.26685.69353-.27345.69023-.28005.67703-.28241.68504-.29372.68221-.30033.67891-.30646.67608-.31353.67279-.32013.66948-.32673.66618-.33333.66288-.33993.65911-.34653.65581-.35313.65204-.35973.64827-.36633.64497-.37246.64073-.37953.63695-.38566.63271-.39226.62894-.39839.6247-.40499.62092-.41112.61621-.41772.61243-.42385.60772-.42998.60348-.43611.59877-.44271.59499-.44836.58981-.45402.58557-.46063.58085-.46628.57613-.47194.57142-.47807.56671-.48373.56199-.48891.55727-.49505.55209-.50023.54738-.50589.54266-.51107.53748-.51673.53558-.52428.30033-.29891.52474-.52946.51955-.53465.51437-.53936.50871-.54455.504-.54926.49787-.55444.49268-.55916.48656-.56341.48137-.56859.47571-.5733.46958-.57802.46392-.58274.4578-.58745.45214-.59169.44601-.59641.43988-.60065.43375-.60536.42762-.60961.42102-.61385.41537-.61809.40876-.62234.40217-.62658.39603-.63036.3899-.63459.38283-.63837.3767-.64261.37011-.64591.3635-.65015.35737-.65345.3503-.65723.34417-.661.3371-.66383.3305-.6676.32437-.6709.3173-.6742.3107-.6775.30456-.68033.29891-.68693.16596-.38943.28712-.68787.28052-.6907.27345-.69306.26638-.69589.25978-.69824.25271-.7006.24564-.70296.23856-.70578.23149-.70768.22395-.71003.21734-.71239.2098-.71427.20226-.71663.19519-.71852.18811-.72041.18057-.72229.17303-.72417.16596-.72559.15794-.72747.15087-.72936.14333-.7303.13626-.73219.12824-.73313.12116-.73502.11362-.73549.10608-.73737.09854-.73785.09147-.73926.08345-.7402.07638-.74115.06883-.74162.06176-.74256.05422-.74303.04667-.74398.0396-.74398.03206-.74492.02546-.74492.01744-.74539.01084-.74586.0033-.73313v-.01744z" data-paper-data="{&quot;isPathIcon&quot;:true}"/></g></svg>