<svg viewBox="0 0 550 470" class="svg-primary-tile"><g data-paper-data="{&quot;isGlobalGroup&quot;:true,&quot;bounds&quot;:{&quot;x&quot;:145.99999999999997,&quot;y&quot;:105.99999999999997,&quot;width&quot;:258,&quot;height&quot;:258}}"><g data-paper-data="{&quot;isIcon&quot;:&quot;true&quot;,&quot;iconType&quot;:&quot;icon&quot;,&quot;rawIconId&quot;:&quot;8c27f6c5-37f9-49e8-8ce0-ca5f2cde0c57&quot;,&quot;selectedEffects&quot;:{&quot;container&quot;:&quot;circle_simple_outline3&quot;,&quot;transformation&quot;:&quot;&quot;,&quot;pattern&quot;:&quot;&quot;},&quot;isDetailed&quot;:false,&quot;fillRule&quot;:&quot;nonzero&quot;,&quot;blockLetter&quot;:&quot;O&quot;,&quot;blockLetterId&quot;:0,&quot;relativeBoundsIconToContainer&quot;:{&quot;top&quot;:0.024246211071824928,&quot;left&quot;:-1.6319496627732447e-7},&quot;widthRatioIconToContainer&quot;:0.5649955573812614,&quot;heightRatioIconToContainer&quot;:0.7473486208746843,&quot;bounds&quot;:{&quot;x&quot;:199.28482427707894,&quot;y&quot;:159.28482427707894,&quot;width&quot;:151.43055069656663,&quot;height&quot;:151.43055069656663},&quot;iconStyle&quot;:&quot;standalone&quot;,&quot;suitableAsStandaloneIcon&quot;:true}"><path d="M270.47322 190.68704h-27.04796v-8.60103h63.14965v8.60103h-27.04796v104.57039h-9.05371zm-1.13172 81.82293-27.61382-63.26282v71.86384h-9.5064v-84.65221h13.12789l23.99234 55.56716zm48.43737-76.05119v84.65221h-9.5064v-71.86384l-27.72699 63.26282v-20.48403l24.10551-55.56716zm-96.31756-14.99748c6.98525-6.98525 15.00727-12.39365 24.06607-16.22521 9.38028-3.96751 19.20452-5.95127 29.47272-5.95127 10.26829 0 20.09258 1.98376 29.47287 5.95127 9.05869 3.83156 17.08059 9.23996 24.06572 16.22521 6.98546 6.98527 12.39392 15.0073 16.22537 24.06609 3.96754 9.38028 5.95131 19.20452 5.95131 29.47272 0 10.26829-1.98377 20.09258-5.95131 29.47287-3.83146 9.05869-9.23991 17.08059-16.22537 24.06572-6.98513 6.98546-15.00703 12.39392-24.06572 16.22537-9.38028 3.96754-19.20457 5.95131-29.47287 5.95131-10.2682 0-20.09243-1.98377-29.47272-5.95131-9.05879-3.83146-17.08081-9.23991-24.06607-16.22537-6.98526-6.98513-12.39367-15.00703-16.22522-24.06572-3.96751-9.38028-5.95127-19.20457-5.95127-29.47287 0-10.2682 1.98376-20.09243 5.95127-29.47272 3.83156-9.05879 9.23997-17.08081 16.22522-24.06609zm4.11838 102.95927c6.44975 6.44968 13.85527 11.4428 22.21657 14.97936 8.65508 3.66077 17.72303 5.49116 27.20384 5.49116 9.48078 0 18.5487-1.83039 27.20374-5.49116 8.36146-3.53655 15.76703-8.52967 22.21672-14.97936 6.44968-6.44968 11.4428-13.85526 14.97936-22.21672 3.66077-8.65505 5.49116-17.72296 5.49116-27.20374 0-9.48082-1.83039-18.54876-5.49116-27.20384-3.53655-8.3613-8.52967-15.76682-14.97936-22.21657-6.44968-6.44977-13.85526-11.44292-22.21672-14.97946-8.65505-3.66077-17.72296-5.49116-27.20374-5.49116-9.48082 0-18.54876 1.83039-27.20384 5.49116-8.36131 3.53654-15.76684 8.5297-22.21657 14.97946-6.44975 6.44975-11.4429 13.85527-14.97946 22.21657-3.66077 8.65508-5.49116 17.72303-5.49116 27.20384 0 9.48078 1.83039 18.5487 5.49116 27.20374 3.53655 8.36146 8.5297 15.76703 14.97946 22.21672z" data-paper-data="{&quot;isPathIcon&quot;:true}"/></g><g data-paper-data="{&quot;isMirroredPrimaryText&quot;:true}"><path d="m177.92923 267.95923 6.23299-11.14434-.66202-1.9499-20.73986 7.04147c.61187 1.80218 1.22373 3.60436 1.8356 5.40655l9.21772-3.12954-3.12433 5.93728.20061.59088 6.10342 2.83728-9.21772 3.12954c.61187 1.80218 1.22373 3.60436 1.8356 5.40655l20.73986-7.04147-.64196-1.89081z" data-paper-data="{&quot;glyphName&quot;:&quot;M&quot;,&quot;glyphIndex&quot;:0,&quot;firstGlyphOfWord&quot;:true,&quot;word&quot;:1}"/><path d="M204.24948 296.34705c-3.06949-4.09394-5.14702-6.86484-8.17908-10.90885-5.79143 4.34221-11.63278 8.72186-17.47413 13.1015 3.03206 4.04401 5.27803 7.03958 8.34753 11.13352 1.32304-.99197 2.67105-2.00266 3.96912-2.97591-1.96522-2.62112-3.08821-4.1189-5.016-6.6901 1.04845-.78609 2.04697-1.53475 3.07046-2.30212l4.45451 5.94121 3.96912-2.97591-4.45451-5.94121 2.47134-1.85293c1.92779 2.57119 2.90105 3.86927 4.84755 6.46543 1.348-1.01069 2.69601-2.02137 3.99409-2.99463z" data-paper-data="{&quot;glyphName&quot;:&quot;E&quot;,&quot;glyphIndex&quot;:1,&quot;word&quot;:1}"/><path d="M209.01313 323.51252c-1.30039-.97016-2.15341-2.69651-1.08996-4.12194l8.65684-11.60348c-1.40042-1.04479-2.87586-2.14555-4.27628-3.19034l-8.71281 11.67851c-2.87318 3.85116-1.15763 8.59552 2.41844 11.26347 3.60108 2.68661 8.58755 2.94232 11.46073-.90884l8.71281-11.67851c-1.40042-1.04479-2.85086-2.1269-4.27628-3.19034l-8.65684 11.60348c-1.06345 1.42543-2.93625 1.11816-4.23664.148z" data-paper-data="{&quot;glyphName&quot;:&quot;U&quot;,&quot;glyphIndex&quot;:2,&quot;lastGlyphOfWord&quot;:true,&quot;word&quot;:1}"/><path d="m254.7276 331.24448-3.00532 16.57795c1.8113.32836 3.62259.65672 5.43389.98508l3.00532-16.57795 5.24969.95168c.30053-1.6578.5955-3.28489.89046-4.91199l-15.96396-2.89401c-.29497 1.6271-.58993 3.25419-.89046 4.91199z" data-paper-data="{&quot;glyphName&quot;:&quot;T&quot;,&quot;glyphIndex&quot;:3,&quot;firstGlyphOfWord&quot;:true,&quot;word&quot;:2}"/><path d="M292.01943 341.08938c5.06753-4.33998 2.35872-14.42705-6.17069-13.49543-3.16234.35705-6.38668.72109-9.51802 1.07464.81911 7.25477 1.63471 14.47855 2.45032 21.70232 1.79819-.20303 3.68939-.41655 5.54959-.62658l-.72109-6.38668 2.88331-.32554 4.44149 5.96663 6.20066-.70009-.09101-.80609zm-4.99804-3.10932-3.96842.44806c-.19603-1.73619-.41305-3.65839-.61258-5.42558 1.30214-.14702 2.66278-.33204 3.96842-.44806 3.16584-.32604 3.6199 5.08604.61258 5.42558z" data-paper-data="{&quot;glyphName&quot;:&quot;R&quot;,&quot;glyphIndex&quot;:4,&quot;word&quot;:2}"/><path d="M316.99294 318.7028c-4.72494 1.96394-7.92292 3.2932-12.59024 5.23319 2.77826 6.68406 5.58047 13.42575 8.38268 20.16743 4.66732-1.93999 8.12459-3.37702 12.84954-5.34096-.63469-1.52696-1.28135-3.08274-1.90407-4.58089-3.02511 1.2574-4.75375 1.97592-7.72125 3.20937-.50296-1.21005-.98197-2.36247-1.47296-3.54371l6.85693-2.85011c-.63469-1.52696-1.26938-3.05393-1.90407-4.58089l-6.85693 2.85011-1.18555-2.85225c2.96749-1.23345 4.46565-1.85616 7.46195-3.10159-.64666-1.55577-1.29333-3.11155-1.91604-4.6097z" data-paper-data="{&quot;glyphName&quot;:&quot;E&quot;,&quot;glyphIndex&quot;:5,&quot;word&quot;:2}"/><path d="m342.769 322.22994-7.16839-9.71638 2.05877-1.51888-2.88958-3.91668-8.56146 6.31633 2.88958 3.91668 2.05877-1.51888 7.16839 9.71638-2.23452 1.64854 2.90811 3.94179 8.91296-6.57565-2.90811-3.94179z" data-paper-data="{&quot;glyphName&quot;:&quot;I&quot;,&quot;glyphIndex&quot;:6,&quot;word&quot;:2}"/><path d="m370.20673 300.08512 1.23096-1.57226-17.22121-13.4829c-1.17326 1.49856-2.34652 2.99713-3.51979 4.49569l8.42635 6.5972-15.30882 2.04169-1.2502 1.59683 17.27034 13.52136c1.17326-1.49856 2.36576-3.0217 3.55825-4.54483l-8.45092-6.61643z" data-paper-data="{&quot;glyphName&quot;:&quot;N&quot;,&quot;glyphIndex&quot;:7,&quot;word&quot;:2}"/><path d="M376.9478 258.36797c-14.27357-4.92988-21.58691 16.24454-7.31334 21.17443 14.30306 4.94007 21.6164-16.23436 7.31334-21.17443zm-5.43917 15.74811c-7.43169-2.5668-3.85651-12.91808 3.57518-10.35129 7.49067 2.58717 3.91549 12.93846-3.57518 10.35129z" data-paper-data="{&quot;glyphName&quot;:&quot;O&quot;,&quot;glyphIndex&quot;:8,&quot;lastGlyphOfWord&quot;:true,&quot;word&quot;:2}"/></g><path d="M224.77985 116.14764c-15.43628 6.52898-29.10179 15.74087-40.99653 27.63568-11.8948 11.89474-21.1067 25.56025-27.63568 40.99653C149.38255 200.77424 146 217.51432 146 235.0001c0 17.48555 3.38258 34.2253 10.14764 50.22015 6.52891 15.43662 15.74081 29.10223 27.63568 40.99683 11.89469 11.8946 25.5602 21.1063 40.99653 27.63508C240.77444 360.61739 257.51452 364 275.0001 364c17.48555 0 34.2253-3.38228 50.22015-10.14784 15.43662-6.52878 29.10223-15.74048 40.99683-27.63508 11.8946-11.89527 21.1063-25.56088 27.63508-40.99683C400.61739 269.22573 404 252.48568 404 235.0001c0-17.48575-3.38228-34.22589-10.14784-50.22025-6.52878-15.43627-15.74048-29.10178-27.63508-40.99653-11.8946-11.8948-25.56022-21.1067-40.99683-27.63568C309.22573 109.38255 292.48568 106 275.0001 106c-17.48575 0-34.22589 3.38258-50.22025 10.14764zm66.48349 19.45992c5.90739-3.10084 5.51586-13.53799-3.00629-14.53165l-9.51801-1.07456-2.45029 21.70229 5.54953.62654.72109-6.38668 2.88336.32558 2.99932 6.8067 6.20058.70017.09106-.80617zm-35.57851 8.42851-3.0053-16.57796-5.28044.9573-.89045-4.91203 15.96397-2.89402.89045 4.91203-5.24966.95172 3.0053 16.57786zm31.39953-12.57402-3.96838-.44802.6126-5.4256c1.3021.14705 2.66976.26998 3.96838.44802 3.15882.38804 2.39479 5.76512-.6126 5.4256zm25.55719-5.21957 12.59065 5.23322-1.91679 4.60967-7.46194-3.10154-1.18554 2.85217 6.85721 2.85018-1.90384 4.58087-6.85721-2.85008-1.47246 3.54367 7.72097 3.20935-1.90384 4.58089-12.84968-5.34097zm-95.97907 30.49826c-1.30041.97016-3.19817 1.29609-4.26167-.12934l-8.6568-11.60349-4.27628 3.19035 8.71285 11.6785c2.8731 3.85116 7.90966 3.55813 11.48571.89018 3.60106-2.68661 5.2666-7.39366 2.3934-11.2448l-8.71284-11.67849-4.27622 3.1903 8.65685 11.60351c1.0634 1.42543.23541 3.13312-1.065 4.10328zm118.7345 1.02207 7.16804-9.71638 2.05926 1.51889 2.88914-3.91668-8.56081-6.31638-2.89013 3.91677 2.05926 1.51879-7.16904 9.71643-2.2346-1.64855-2.90806 3.9418 8.91348 6.57565 2.90806-3.94179zM275.0001 155.272c22.01654 0 40.80854 7.78393 56.376 23.3518 15.56812 15.56792 23.35218 34.36002 23.35218 56.3763 0 22.01621-7.78373 40.80754-23.35218 56.376-15.56812 15.56812-34.36012 23.35218-56.376 23.35218-22.01621 0-40.80834-7.78373-56.3763-23.35218-15.56787-15.56812-23.3518-34.36012-23.3518-56.376h.00001c0-22.01634 7.78393-40.80844 23.3518-56.3763 15.56792-15.56786 34.36002-23.3518 56.3763-23.3518zm78.89731 29.94829-1.23137-1.57229 1.68566-15.30764-8.45022 6.61642-3.55862-4.54491 17.27006-13.52132 1.2503 1.59684-1.69064 15.3515 8.42631-6.59719 3.51976 4.49569zm-175.00161-13.5352 8.1791-10.90886 3.99409 2.99463-4.84756 6.46538 2.47135 1.85293 4.45451-5.94116 3.96912 2.97591-4.45451 5.94116 3.07045 2.30214 5.016-6.69004 3.96912 2.97591-8.34752 11.13353zm-15.17803 34.55905 11.72979-5.04573-6.18285-11.29214.64199-1.89079 20.73983 7.04152-1.8356 5.40647-9.21776-3.12953 3.11429 5.96686-.20055.59088-6.09339 2.80774 9.2177 3.12953-1.83556 5.40657-20.73991-7.04152zm212.81751 5.5307c14.27333-4.92986 6.95983-26.10434-7.3135-21.17447-14.30321 4.94012-6.98972 26.1145 7.3135 21.17447zm-5.43954-15.74818c7.43205-2.56675 11.00661 7.78453 3.57555 10.35137-7.49083 2.58717-11.06639-7.7642-3.57555-10.35137zM158.69805 284.1423c-6.44051-15.2274-9.74774-31.14661-9.92169-47.75761h43.7365c.32067 22.18471 8.37164 41.16806 24.1529 56.95004 16.10842 16.10876 35.5532 24.16314 58.33434 24.16314 22.78133 0 42.22621-8.05471 58.33463-24.16314 15.78132-15.78199 23.83238-34.76533 24.15317-56.95004h43.73553c-.17434 16.61034-3.48091 32.52987-9.92169 47.75761-6.38798 15.1042-15.40208 28.47592-27.0433 40.11614-11.63956 11.64023-25.01161 20.65466-40.11614 27.0433-15.65048 6.61911-32.03121 9.92866-49.1422 9.92866-17.11165 0-33.49215-3.30955-49.14151-9.92866-15.1048-6.38798-28.47717-15.40208-40.11725-27.0433-11.64015-11.63956-20.65459-25.01161-27.04329-40.11614z" data-paper-data="{&quot;isContainerElementsWrapper&quot;:true}" fill-rule="evenodd"/></g></svg>