<svg class="svg-second-tile" viewBox="199.28482428 159.28482428 151.4305507 151.4305507" preserveAspectRatio="none" style="width:auto;height:40%"><g data-paper-data="{&quot;isIcon&quot;:&quot;true&quot;,&quot;iconType&quot;:&quot;icon&quot;,&quot;rawIconId&quot;:&quot;8c27f6c5-37f9-49e8-8ce0-ca5f2cde0c57&quot;,&quot;selectedEffects&quot;:{&quot;container&quot;:&quot;circle_simple_outline3&quot;,&quot;transformation&quot;:&quot;&quot;,&quot;pattern&quot;:&quot;&quot;},&quot;isDetailed&quot;:false,&quot;fillRule&quot;:&quot;nonzero&quot;,&quot;blockLetter&quot;:&quot;O&quot;,&quot;blockLetterId&quot;:0,&quot;relativeBoundsIconToContainer&quot;:{&quot;top&quot;:0.024246211071824928,&quot;left&quot;:-1.6319496627732447e-7},&quot;widthRatioIconToContainer&quot;:0.5649955573812614,&quot;heightRatioIconToContainer&quot;:0.7473486208746843,&quot;bounds&quot;:{&quot;x&quot;:199.28482427707894,&quot;y&quot;:159.28482427707894,&quot;width&quot;:151.43055069656663,&quot;height&quot;:151.43055069656663},&quot;iconStyle&quot;:&quot;standalone&quot;,&quot;suitableAsStandaloneIcon&quot;:true}" style="fill:#e06287"><path d="M270.47322 190.68704h-27.04796v-8.60103h63.14965v8.60103h-27.04796v104.57039h-9.05371zm-1.13172 81.82293-27.61382-63.26282v71.86384h-9.5064v-84.65221h13.12789l23.99234 55.56716zm48.43737-76.05119v84.65221h-9.5064v-71.86384l-27.72699 63.26282v-20.48403l24.10551-55.56716zm-96.31756-14.99748c6.98525-6.98525 15.00727-12.39365 24.06607-16.22521 9.38028-3.96751 19.20452-5.95127 29.47272-5.95127 10.26829 0 20.09258 1.98376 29.47287 5.95127 9.05869 3.83156 17.08059 9.23996 24.06572 16.22521 6.98546 6.98527 12.39392 15.0073 16.22537 24.06609 3.96754 9.38028 5.95131 19.20452 5.95131 29.47272 0 10.26829-1.98377 20.09258-5.95131 29.47287-3.83146 9.05869-9.23991 17.08059-16.22537 24.06572-6.98513 6.98546-15.00703 12.39392-24.06572 16.22537-9.38028 3.96754-19.20457 5.95131-29.47287 5.95131-10.2682 0-20.09243-1.98377-29.47272-5.95131-9.05879-3.83146-17.08081-9.23991-24.06607-16.22537-6.98526-6.98513-12.39367-15.00703-16.22522-24.06572-3.96751-9.38028-5.95127-19.20457-5.95127-29.47287 0-10.2682 1.98376-20.09243 5.95127-29.47272 3.83156-9.05879 9.23997-17.08081 16.22522-24.06609zm4.11838 102.95927c6.44975 6.44968 13.85527 11.4428 22.21657 14.97936 8.65508 3.66077 17.72303 5.49116 27.20384 5.49116 9.48078 0 18.5487-1.83039 27.20374-5.49116 8.36146-3.53655 15.76703-8.52967 22.21672-14.97936 6.44968-6.44968 11.4428-13.85526 14.97936-22.21672 3.66077-8.65505 5.49116-17.72296 5.49116-27.20374 0-9.48082-1.83039-18.54876-5.49116-27.20384-3.53655-8.3613-8.52967-15.76682-14.97936-22.21657-6.44968-6.44977-13.85526-11.44292-22.21672-14.97946-8.65505-3.66077-17.72296-5.49116-27.20374-5.49116-9.48082 0-18.54876 1.83039-27.20384 5.49116-8.36131 3.53654-15.76684 8.5297-22.21657 14.97946-6.44975 6.44975-11.4429 13.85527-14.97946 22.21657-3.66077 8.65508-5.49116 17.72303-5.49116 27.20384 0 9.48078 1.83039 18.5487 5.49116 27.20374 3.53655 8.36146 8.5297 15.76703 14.97946 22.21672z" data-paper-data="{&quot;isPathIcon&quot;:true}" style="fill:#fff"/></g></svg>